{"asset":{"version":"2.0","generator":"THREE.GLTFExporter"},"scenes":[{"name":"AuxScene","nodes":[0]}],"scene":0,"nodes":[{"mesh":0}],"bufferViews":[{"buffer":0,"byteOffset":0,"byteLength":744,"target":34962,"byteStride":12},{"buffer":0,"byteOffset":744,"byteLength":744,"target":34962,"byteStride":12},{"buffer":0,"byteOffset":1488,"byteLength":496,"target":34962,"byteStride":8},{"buffer":0,"byteOffset":1984,"byteLength":192,"target":34963}],"buffers":[{"byteLength":2176,"uri":"data:application/octet-stream;base64,"}],"accessors":[{"bufferView":0,"componentType":5126,"count":62,"max":[4,2.375070095062256,-0.00035001750802621245],"min":[-4.440892098500626e-16,0,-4.000349998474121],"type":"VEC3"},{"bufferView":1,"componentType":5126,"count":62,"max":[1,1,1],"min":[-1,0,-1],"type":"VEC3"},{"bufferView":2,"componentType":5126,"count":62,"max":[0.800000011920929,0.625],"min":[0,0.1875],"type":"VEC2"},{"bufferView":3,"componentType":5123,"count":96,"max":[61],"min":[0],"type":"SCALAR"}],"materials":[{"pbrMetallicRoughness":{"metallicFactor":0,"roughnessFactor":0.9,"baseColorTexture":{"index":0}},"alphaMode":"MASK","alphaCutoff":0.01,"extensions":{"KHR_materials_unlit":{}}}],"textures":[{"sampler":0,"source":0}],"samplers":[{"magFilter":9728,"minFilter":9728,"wrapS":33071,"wrapT":33071}],"images":[{"mimeType":"image/png","uri":"data:image/png;base64,"}],"meshes":[{"primitives":[{"mode":4,"attributes":{"POSITION":0,"NORMAL":1,"TEXCOORD_0":2},"indices":3,"material":0}]}],"extensionsUsed":["KHR_materials_unlit"]}