{"asset":{"version":"2.0","generator":"THREE.GLTFExporter"},"scenes":[{"name":"AuxScene","nodes":[0]}],"scene":0,"nodes":[{"mesh":0}],"bufferViews":[{"buffer":0,"byteOffset":0,"byteLength":3672,"target":34962,"byteStride":12},{"buffer":0,"byteOffset":3672,"byteLength":3672,"target":34962,"byteStride":12},{"buffer":0,"byteOffset":7344,"byteLength":2448,"target":34962,"byteStride":8},{"buffer":0,"byteOffset":9792,"byteLength":936,"target":34963}],"buffers":[{"byteLength":10728,"uri":"data:application/octet-stream;base64,"}],"accessors":[{"bufferView":0,"componentType":5126,"count":306,"max":[5,4.6254563331604,0.0001500248908996582],"min":[-4.996003610813204e-16,0,-4.999849796295166],"type":"VEC3"},{"bufferView":1,"componentType":5126,"count":306,"max":[1,1,1],"min":[-1,-0.00009412513463757932,-1],"type":"VEC3"},{"bufferView":2,"componentType":5126,"count":306,"max":[0.800000011920929,1],"min":[0,0.04296875],"type":"VEC2"},{"bufferView":3,"componentType":5123,"count":468,"max":[305],"min":[0],"type":"SCALAR"}],"materials":[{"pbrMetallicRoughness":{"metallicFactor":0,"roughnessFactor":0.9,"baseColorTexture":{"index":0}},"alphaMode":"MASK","alphaCutoff":0.01,"extensions":{"KHR_materials_unlit":{}}}],"textures":[{"sampler":0,"source":0}],"samplers":[{"magFilter":9728,"minFilter":9728,"wrapS":33071,"wrapT":33071}],"images":[{"mimeType":"image/png","uri":"data:image/png;base64,"}],"meshes":[{"primitives":[{"mode":4,"attributes":{"POSITION":0,"NORMAL":1,"TEXCOORD_0":2},"indices":3,"material":0}]}],"extensionsUsed":["KHR_materials_unlit"]}