{"asset":{"version":"2.0","generator":"THREE.GLTFExporter"},"scenes":[{"name":"AuxScene","nodes":[0]}],"scene":0,"nodes":[{"mesh":0}],"bufferViews":[{"buffer":0,"byteOffset":0,"byteLength":4968,"target":34962,"byteStride":12},{"buffer":0,"byteOffset":4968,"byteLength":4968,"target":34962,"byteStride":12},{"buffer":0,"byteOffset":9936,"byteLength":4968,"target":34962,"byteStride":12},{"buffer":0,"byteOffset":14904,"byteLength":3312,"target":34962,"byteStride":8},{"buffer":0,"byteOffset":18216,"byteLength":828,"target":34963}],"buffers":[{"byteLength":19044,"uri":"data:application/octet-stream;base64,"}],"accessors":[{"bufferView":0,"componentType":5126,"count":414,"max":[0.0625,2.0625,0.06252499669790268],"min":[-0.3125,0,-0.3125],"type":"VEC3"},{"bufferView":1,"componentType":5126,"count":414,"max":[1,1,1],"min":[-1,-1,-1],"type":"VEC3"},{"bufferView":2,"componentType":5126,"count":414,"max":[1,1,1],"min":[1,1,1],"type":"VEC3"},{"bufferView":3,"componentType":5126,"count":414,"max":[0.1964285671710968,0.8958333134651184],"min":[0.15625,0.1041666641831398],"type":"VEC2"},{"bufferView":4,"componentType":5123,"count":414,"max":[413],"min":[0],"type":"SCALAR"}],"materials":[{"pbrMetallicRoughness":{"metallicFactor":0,"roughnessFactor":0.9,"baseColorTexture":{"index":0}},"extensions":{"KHR_materials_unlit":{}},"alphaMode":"MASK","alphaCutoff":0.01}],"textures":[{"sampler":0,"source":0}],"samplers":[{"magFilter":9728,"minFilter":9728,"wrapS":33071,"wrapT":33071}],"images":[{"mimeType":"image/png","uri":"data:image/png;base64,"}],"meshes":[{"primitives":[{"mode":4,"attributes":{"POSITION":0,"NORMAL":1,"COLOR_0":2,"TEXCOORD_0":3},"indices":4,"material":0}]}],"extensionsUsed":["KHR_materials_unlit"]}