{"asset":{"version":"2.0","generator":"THREE.GLTFExporter"},"scenes":[{"name":"AuxScene","nodes":[0]}],"scene":0,"nodes":[{"mesh":0}],"bufferViews":[{"buffer":0,"byteOffset":0,"byteLength":1776,"target":34962,"byteStride":12},{"buffer":0,"byteOffset":1776,"byteLength":1776,"target":34962,"byteStride":12},{"buffer":0,"byteOffset":3552,"byteLength":1184,"target":34962,"byteStride":8},{"buffer":0,"byteOffset":4736,"byteLength":432,"target":34963}],"buffers":[{"byteLength":5168,"uri":"data:application/octet-stream;base64,"}],"accessors":[{"bufferView":0,"componentType":5126,"count":148,"max":[4.0625,0.9373980760574341,0.06214997544884682],"min":[-0.0625,-0.75,-4.062849998474121],"type":"VEC3"},{"bufferView":1,"componentType":5126,"count":148,"max":[1,1,1],"min":[-1,0,-1],"type":"VEC3"},{"bufferView":2,"componentType":5126,"count":148,"max":[0.4000000059604645,0.9285714030265808],"min":[0,0.4285714030265808],"type":"VEC2"},{"bufferView":3,"componentType":5123,"count":216,"max":[147],"min":[0],"type":"SCALAR"}],"materials":[{"pbrMetallicRoughness":{"metallicFactor":0,"roughnessFactor":0.9,"baseColorTexture":{"index":0}},"alphaMode":"MASK","alphaCutoff":0.01,"extensions":{"KHR_materials_unlit":{}}}],"textures":[{"sampler":0,"source":0}],"samplers":[{"magFilter":9728,"minFilter":9728,"wrapS":33071,"wrapT":33071}],"images":[{"mimeType":"image/png","uri":"data:image/png;base64,"}],"meshes":[{"primitives":[{"mode":4,"attributes":{"POSITION":0,"NORMAL":1,"TEXCOORD_0":2},"indices":3,"material":0}]}],"extensionsUsed":["KHR_materials_unlit"]}