{"asset":{"version":"2.0","generator":"THREE.GLTFExporter"},"scenes":[{"name":"AuxScene","nodes":[0]}],"scene":0,"nodes":[{"mesh":0}],"bufferViews":[{"buffer":0,"byteOffset":0,"byteLength":1584,"target":34962,"byteStride":12},{"buffer":0,"byteOffset":1584,"byteLength":1584,"target":34962,"byteStride":12},{"buffer":0,"byteOffset":3168,"byteLength":1584,"target":34962,"byteStride":12},{"buffer":0,"byteOffset":4752,"byteLength":1056,"target":34962,"byteStride":8},{"buffer":0,"byteOffset":5808,"byteLength":264,"target":34963}],"buffers":[{"byteLength":6072,"uri":"data:application/octet-stream;base64,"}],"accessors":[{"bufferView":0,"componentType":5126,"count":132,"max":[6,0.12599293887615204,0.00004999999873689376],"min":[0,-0.06220081448554993,-7.999949932098389],"type":"VEC3"},{"bufferView":1,"componentType":5126,"count":132,"max":[0.5547001957893372,1,0.5547577738761902],"min":[-0.5547001957893372,0.832011878490448,-0.1736898273229599],"type":"VEC3"},{"bufferView":2,"componentType":5126,"count":132,"max":[1,1,1],"min":[1,1,1],"type":"VEC3"},{"bufferView":3,"componentType":5126,"count":132,"max":[0.800000011920929,1],"min":[0.20000000298023224,0.20000000298023224],"type":"VEC2"},{"bufferView":4,"componentType":5123,"count":132,"max":[131],"min":[0],"type":"SCALAR"}],"materials":[{"pbrMetallicRoughness":{"metallicFactor":0,"roughnessFactor":0.9,"baseColorTexture":{"index":0}},"extensions":{"KHR_materials_unlit":{}},"alphaMode":"MASK","alphaCutoff":0.01}],"textures":[{"sampler":0,"source":0}],"samplers":[{"magFilter":9728,"minFilter":9728,"wrapS":33071,"wrapT":33071}],"images":[{"mimeType":"image/png","uri":"data:image/png;base64,"}],"meshes":[{"primitives":[{"mode":4,"attributes":{"POSITION":0,"NORMAL":1,"COLOR_0":2,"TEXCOORD_0":3},"indices":4,"material":0}]}],"extensionsUsed":["KHR_materials_unlit"]}