{"asset":{"version":"2.0","generator":"THREE.GLTFExporter"},"scenes":[{"name":"AuxScene","nodes":[0]}],"scene":0,"nodes":[{"mesh":0}],"bufferViews":[{"buffer":0,"byteOffset":0,"byteLength":2520,"target":34962,"byteStride":12},{"buffer":0,"byteOffset":2520,"byteLength":2520,"target":34962,"byteStride":12},{"buffer":0,"byteOffset":5040,"byteLength":2520,"target":34962,"byteStride":12},{"buffer":0,"byteOffset":7560,"byteLength":1680,"target":34962,"byteStride":8},{"buffer":0,"byteOffset":9240,"byteLength":420,"target":34963}],"buffers":[{"byteLength":9660,"uri":"data:application/octet-stream;base64,"}],"accessors":[{"bufferView":0,"componentType":5126,"count":210,"max":[7.125,0.12690673768520355,2.186650037765503],"min":[-2.875,-0.0617213249206543,-7.813349723815918],"type":"VEC3"},{"bufferView":1,"componentType":5126,"count":210,"max":[0.5546854138374329,1,0.5547577738761902],"min":[-0.5547149777412415,0.7275745868682861,-0.5546426177024841],"type":"VEC3"},{"bufferView":2,"componentType":5126,"count":210,"max":[1,1,1],"min":[1,1,1],"type":"VEC3"},{"bufferView":3,"componentType":5126,"count":210,"max":[1,1],"min":[0,0],"type":"VEC2"},{"bufferView":4,"componentType":5123,"count":210,"max":[209],"min":[0],"type":"SCALAR"}],"materials":[{"pbrMetallicRoughness":{"metallicFactor":0,"roughnessFactor":0.9,"baseColorTexture":{"index":0}},"extensions":{"KHR_materials_unlit":{}},"alphaMode":"MASK","alphaCutoff":0.01}],"textures":[{"sampler":0,"source":0}],"samplers":[{"magFilter":9728,"minFilter":9728,"wrapS":33071,"wrapT":33071}],"images":[{"mimeType":"image/png","uri":"data:image/png;base64,"}],"meshes":[{"primitives":[{"mode":4,"attributes":{"POSITION":0,"NORMAL":1,"COLOR_0":2,"TEXCOORD_0":3},"indices":4,"material":0}]}],"extensionsUsed":["KHR_materials_unlit"]}