{"asset":{"version":"2.0","generator":"THREE.GLTFExporter"},"scenes":[{"name":"AuxScene","nodes":[0]}],"scene":0,"nodes":[{"mesh":0}],"bufferViews":[{"buffer":0,"byteOffset":0,"byteLength":696,"target":34962,"byteStride":12},{"buffer":0,"byteOffset":696,"byteLength":696,"target":34962,"byteStride":12},{"buffer":0,"byteOffset":1392,"byteLength":464,"target":34962,"byteStride":8},{"buffer":0,"byteOffset":1856,"byteLength":168,"target":34963}],"buffers":[{"byteLength":2024,"uri":"data:application/octet-stream;base64,"}],"accessors":[{"bufferView":0,"componentType":5126,"count":58,"max":[4.3125,2.6253855228424072,15.812950134277344],"min":[-5.6875,-0.3757704794406891,5.812449932098389],"type":"VEC3"},{"bufferView":1,"componentType":5126,"count":58,"max":[1,1,1],"min":[-1,-1,-1],"type":"VEC3"},{"bufferView":2,"componentType":5126,"count":58,"max":[1,0.46666663885116577],"min":[0,0.10000002384185791],"type":"VEC2"},{"bufferView":3,"componentType":5123,"count":84,"max":[57],"min":[0],"type":"SCALAR"}],"materials":[{"pbrMetallicRoughness":{"metallicFactor":0,"roughnessFactor":0.9,"baseColorTexture":{"index":0}},"alphaMode":"MASK","alphaCutoff":0.01,"extensions":{"KHR_materials_unlit":{}}}],"textures":[{"sampler":0,"source":0}],"samplers":[{"magFilter":9728,"minFilter":9728,"wrapS":33071,"wrapT":33071}],"images":[{"mimeType":"image/png","uri":"data:image/png;base64,"}],"meshes":[{"primitives":[{"mode":4,"attributes":{"POSITION":0,"NORMAL":1,"TEXCOORD_0":2},"indices":3,"material":0}]}],"extensionsUsed":["KHR_materials_unlit"]}