{"asset":{"version":"2.0","generator":"THREE.GLTFExporter"},"scenes":[{"name":"AuxScene","nodes":[0]}],"scene":0,"nodes":[{"mesh":0}],"bufferViews":[{"buffer":0,"byteOffset":0,"byteLength":1512,"target":34962,"byteStride":12},{"buffer":0,"byteOffset":1512,"byteLength":1512,"target":34962,"byteStride":12},{"buffer":0,"byteOffset":3024,"byteLength":1512,"target":34962,"byteStride":12},{"buffer":0,"byteOffset":4536,"byteLength":1008,"target":34962,"byteStride":8},{"buffer":0,"byteOffset":5544,"byteLength":252,"target":34963}],"buffers":[{"byteLength":5796,"uri":"data:application/octet-stream;base64,"}],"accessors":[{"bufferView":0,"componentType":5126,"count":126,"max":[10,0.12518124282360077,8.1875],"min":[0,-0.06331875175237656,-1.8125],"type":"VEC3"},{"bufferView":1,"componentType":5126,"count":126,"max":[0.5146273970603943,1,0.7071421146392822],"min":[-0.5146273970603943,0.7070714235305786,-0.7070714235305786],"type":"VEC3"},{"bufferView":2,"componentType":5126,"count":126,"max":[1,1,1],"min":[1,1,1],"type":"VEC3"},{"bufferView":3,"componentType":5126,"count":126,"max":[0.6666666865348816,1],"min":[0.3333333432674408,0.5],"type":"VEC2"},{"bufferView":4,"componentType":5123,"count":126,"max":[125],"min":[0],"type":"SCALAR"}],"materials":[{"pbrMetallicRoughness":{"metallicFactor":0,"roughnessFactor":0.9,"baseColorTexture":{"index":0}},"extensions":{"KHR_materials_unlit":{}},"alphaMode":"MASK","alphaCutoff":0.01}],"textures":[{"sampler":0,"source":0}],"samplers":[{"magFilter":9728,"minFilter":9728,"wrapS":33071,"wrapT":33071}],"images":[{"mimeType":"image/png","uri":"data:image/png;base64,"}],"meshes":[{"primitives":[{"mode":4,"attributes":{"POSITION":0,"NORMAL":1,"COLOR_0":2,"TEXCOORD_0":3},"indices":4,"material":0}]}],"extensionsUsed":["KHR_materials_unlit"]}